<?xml version="1.0" standalone="no"?>
<!DOCTYPE svg PUBLIC "-//W3C//DTD SVG 20010904//EN"
 "http://www.w3.org/TR/2001/REC-SVG-20010904/DTD/svg10.dtd">
<svg version="1.0" xmlns="http://www.w3.org/2000/svg"
 width="260.000000pt" height="260.000000pt" viewBox="0 0 260.000000 260.000000"
 preserveAspectRatio="xMidYMid meet">
<metadata>
Created by potrace 1.11, written by Peter Selinger 2001-2013
</metadata>
<g transform="translate(0.000000,260.000000) scale(0.100000,-0.100000)"
fill="#000000" stroke="none">
<path d="M1150 2593 c-81 -12 -194 -38 -260 -60 -463 -152 -806 -561 -877
-1048 -9 -63 -10 -293 -1 -360 56 -425 328 -801 718 -992 192 -94 341 -128
570 -127 228 0 376 33 572 128 56 27 93 39 102 34 10 -6 13 -3 10 10 -2 12 13
28 54 54 275 176 488 514 546 869 14 82 15 329 2 394 -4 17 -11 53 -16 80 -45
222 -169 453 -336 627 -193 201 -450 335 -739 385 -37 6 -311 11 -345 6z"/>
</g>
</svg>
